<svg width="20" height="20" viewBox="0 0 20 20" fill="none" xmlns="http://www.w3.org/2000/svg">
<path d="M9.97722 2.64914e-07C5.08415 -0.000628249 0.913033 3.54799 0.129618 8.37793C-0.653798 13.2079 2.18181 17.893 6.82422 19.439C7.32422 19.529 7.50322 19.222 7.50322 18.958C7.50322 18.721 7.49522 18.093 7.49222 17.258C4.71722 17.858 4.13122 15.92 4.13122 15.92C3.94853 15.317 3.5558 14.7993 3.02422 14.461C2.12422 13.842 3.09322 13.856 3.09322 13.856C3.7339 13.9438 4.29777 14.3235 4.62022 14.884C4.89315 15.3803 5.35298 15.747 5.89752 15.9026C6.44207 16.0583 7.02623 15.99 7.52022 15.713C7.56664 15.207 7.79176 14.7341 8.15522 14.379C5.94122 14.128 3.61322 13.272 3.61322 9.449C3.60093 8.4602 3.96812 7.5043 4.63922 6.778C4.33557 5.91731 4.37133 4.97325 4.73922 4.138C4.73922 4.138 5.57622 3.869 7.48122 5.159C9.11507 4.71101 10.8394 4.71101 12.4732 5.159C14.3792 3.868 15.2152 4.138 15.2152 4.138C15.5848 4.97286 15.6206 5.91757 15.3152 6.778C15.9888 7.50423 16.3557 8.46264 16.3392 9.453C16.3392 13.286 14.0092 14.128 11.7872 14.375C12.2665 14.8651 12.5124 15.5373 12.4622 16.221C12.4622 17.555 12.4502 18.631 12.4502 18.958C12.4502 19.225 12.6282 19.535 13.1372 19.437C17.7777 17.8884 20.6103 13.203 19.8252 8.37432C19.0402 3.54565 14.8693 -0.00111917 9.97722 2.64914e-07Z" fill="#EAF6FF"/>
</svg>
