<svg width="25" height="26" viewBox="0 0 25 26" fill="none" xmlns="http://www.w3.org/2000/svg">
<path d="M4.43355 17.7851C3.27036 15.8226 2.86348 13.503 3.28932 11.2618C3.71516 9.0206 4.94442 7.01188 6.74633 5.61277C8.54824 4.21366 10.7989 3.52037 13.0757 3.66306C15.3526 3.80575 17.499 4.77461 19.1122 6.38774C20.7253 8.00087 21.6942 10.1473 21.8369 12.4242C21.9795 14.701 21.2863 16.9517 19.8871 18.7536C18.488 20.5555 16.4793 21.7848 14.2381 22.2106C11.9969 22.6364 9.67729 22.2296 7.7148 21.0664V21.0664L4.47262 21.9843C4.33978 22.0232 4.19894 22.0256 4.06486 21.9913C3.93078 21.957 3.80839 21.8873 3.71053 21.7894C3.61266 21.6915 3.54293 21.5691 3.50863 21.4351C3.47433 21.301 3.47673 21.1601 3.51558 21.0273L4.43355 17.7851Z" stroke="#EAF6FF" stroke-width="2" stroke-linecap="round" stroke-linejoin="round"/>
<path d="M14.8535 18.4688C13.8256 18.4713 12.8072 18.2708 11.857 17.8786C10.9068 17.4864 10.0435 16.9103 9.31659 16.1834C8.58971 15.4565 8.01362 14.5932 7.62143 13.643C7.22924 12.6928 7.02867 11.6745 7.03124 10.6465C7.03383 9.923 7.32305 9.23001 7.83557 8.71932C8.34808 8.20864 9.04211 7.92189 9.76562 7.9219V7.9219C9.88499 7.92094 10.0024 7.95219 10.1055 8.01233C10.2086 8.07248 10.2936 8.15932 10.3516 8.26369L11.4941 10.2559C11.5621 10.377 11.597 10.5138 11.5952 10.6527C11.5935 10.7916 11.5553 10.9275 11.4844 11.0469L10.5664 12.5801C11.0366 13.6261 11.8739 14.4634 12.9199 14.9336L14.4531 14.0156C14.5725 13.9447 14.7085 13.9065 14.8473 13.9048C14.9862 13.9031 15.123 13.9379 15.2441 14.0059L17.2363 15.1485C17.3407 15.2064 17.4275 15.2914 17.4877 15.3945C17.5478 15.4976 17.5791 15.615 17.5781 15.7344C17.5756 16.4571 17.288 17.1497 16.7779 17.6616C16.2677 18.1736 15.5762 18.4636 14.8535 18.4688V18.4688Z" stroke="#EAF6FF" stroke-width="1.5" stroke-linecap="round" stroke-linejoin="round"/>
</svg>
